<?xml version="1.0" encoding="utf-8"?>
<!-- Generator: Adobe Illustrator 25.0.1, SVG Export Plug-In . SVG Version: 6.00 Build 0)  -->
<svg version="1.1" id="Layer_1" xmlns="http://www.w3.org/2000/svg" xmlns:xlink="http://www.w3.org/1999/xlink" x="0px" y="0px"
	 viewBox="0 0 102.5 102.5" style="enable-background:new 0 0 102.5 102.5;" xml:space="preserve">
<style type="text/css">
	.st0{fill:none;stroke:#B24970;stroke-width:3;stroke-miterlimit:10;}
	.st1{fill:none;stroke:#B24970;stroke-width:2;stroke-miterlimit:10;}
	.st2{fill:#B24970;}
</style>
<circle class="st0" cx="52.7" cy="51.2" r="47.8"/>
<g>
	<path class="st0" d="M13.8,51.2c0,13.2,6.8,24.8,17,31.5V51.9c0-6.4,10-6.4,10,0v35.4c2.2,0.6,4.4,1.1,6.8,1.3v-75
		C28.5,15.6,13.8,31.7,13.8,51.2z"/>
	<polygon class="st1" points="36,28.8 37.7,31.9 41.3,31.8 39.5,34.9 41.3,38 37.7,38 36,41.1 34.2,38 30.6,38 32.5,34.9 30.6,31.8 
		34.2,31.9 	"/>
</g>
<g>
	<g>
		<path class="st2" d="M81.3,57.2c-2.1-3.5-6-7.3-11.9-11.2c-4.2-2.8-6.9-4.8-8.1-5.9c-1.6-1.6-2.7-3.1-3.5-4.7
			c-0.5-1.2-0.8-2.5-0.8-4.1c0-2.4,0.7-4.5,2.2-6.4c1.5-1.8,3.5-2.8,6-2.8c3.3,0,6.3,1.8,9.1,5.3c2.8,3.5,4.6,8.1,5.3,13.9h1.5
			l-0.4-23h-1.1c-0.3,2.1-0.7,3.4-1,3.9c-0.4,0.5-0.9,0.8-1.5,0.8c-0.7,0-1.8-0.5-3.5-1.7c-1.7-1.1-3.1-1.9-4.3-2.3
			c-1.5-0.5-3.1-0.8-4.8-0.8c-4.5,0-8.2,1.9-11.2,5.8c-0.3,0.4-0.5,0.7-0.8,1.1c0,0.1,0,0.1-0.1,0.2c-0.3,1.4-0.6,2.8-0.7,4
			c0,0.6-0.1,1.2,0,1.8c0,0.1,0,0.3,0.1,0.4c0.1,0.6,0.2,1.2,0.3,1.8c0,0.2,0.1,0.4,0.1,0.6c0.1,0.4,0.2,0.7,0.2,1.1
			c0,0.1,0.1,0.2,0.1,0.2c0.6,4.1,3,7.2,6.1,9.7c2.8,2.4,6,4.2,9.1,6.2c3.5,2.3,6.7,5,9.5,8.1c2.9,3.2,5.6,7,6.5,11.4
			c0.1,0.5,0.2,1.1,0.4,1.6c0.1-1,0.2-2,0.2-3.1C84.4,64.8,83.4,60.8,81.3,57.2z"/>
		<path class="st2" d="M79.7,70.4c-1.4-4.2-4.4-7.7-7.5-10.6c-2.8-2.7-5.9-4.8-9.2-6.9c-5.5-3.6-11.7-7.8-13.7-14.4
			c-0.1,0-0.2-0.1-0.3-0.1c0,3.2,0.6,6,1.6,8.7c1.1,2.7,2.6,5.1,4.6,7.3c2,2.2,5.3,4.8,9.9,7.9c3.3,2.2,5.6,4,6.8,5.4
			c1.3,1.4,2.2,2.8,2.9,4.3c0.6,1.5,0.9,3.1,0.9,4.7c0,2.7-0.8,5.1-2.5,7.2c-1.6,2.1-3.9,3.1-6.6,3.1c-3.6,0-6.9-1.9-10.1-5.8
			c-3.1-3.8-5.2-9.4-6.3-16.7H49v26h1.4c0.4-1.4,1-2.4,1.7-3.1c0.7-0.7,1.4-1,2-1c0.8,0,1.7,0.3,2.9,1c2.1,1.2,3.9,2,5.3,2.5
			c1.4,0.4,2.9,0.7,4.5,0.7c5.1,0,9.2-2.1,12.5-6.2c0.4-0.5,0.7-0.9,1-1.4c0.2-0.6,0.4-1.2,0.5-1.8c0-0.2,0.1-0.4,0.1-0.6
			c0-0.1,0-0.2,0-0.2c0,0,0-0.1,0-0.1c0-0.4,0.1-0.9,0.1-1.3c0-0.8,0-1.6,0-2.3C80.7,74.4,80.3,72.3,79.7,70.4z"/>
	</g>
</g>
</svg>
